# xmcd CD database file
#
# Track frame offsets:
#	150
#	17159
#	32914
#	48121
#	68541
#	83654
#	98382
#	113823
#	129583
#	147458
#	163968
#
# Disc length: 2422 seconds
#
# Revision: 0
# Processed by: cddbd v1.5.1PL0 Copyright (c) Steve Scherf et al.
# Submitted via: CDex 1.51
#
DISCID=8909740b
DTITLE=The Todd Tijerina Band - Welcome Home
DYEAR=2004
DGENRE=Blues
TTITLE0=Welcome Home
TTITLE1=Nothin' Like the Blues
TTITLE2=Life's too Short
TTITLE3=Blues at my Baby's House
TTITLE4=I Meant it
TTITLE5=E Jam
TTITLE6=Sweet November
TTITLE7=Mean Woman
TTITLE8=Stick Around
TTITLE9=Barely Gettin' By
TTITLE10=Lookin' Away
EXTD=YEAR: 2004
EXTT0=
EXTT1=
EXTT2=
EXTT3=
EXTT4=
EXTT5=
EXTT6=
EXTT7=
EXTT8=
EXTT9=
EXTT10=
PLAYORDER=
